# xmcd
#
# Track frame offsets:
#   150
#   10054
#   25575
#   40241
#   55638
#   69254
#   86119
#   103102
#   118426
#   132756
#   150799
#   164491
#   179075
#   194323
#   205161
#   219459
#   233169
#   247092
#   261788
#   278093
#   292742
#
# Disc length: 4117 seconds
#
# Revision: 0
# Processed by: cddbd v1.5.1PL0 Copyright (c) Steve Scherf et al.
# Submitted via: Media_Universe 3.0
#
DISCID=25101315
DTITLE=Tracy Byrd - The Truth About Men and I'm From The Country
DYEAR=1900
DGENRE=Country
TTITLE0=The Drinkin Bone
TTITLE1=You Feel Good
TTITLE2=How'd I Wind Up In Jamaica
TTITLE3=Tiny Town
TTITLE4=The Truth About Men
TTITLE5=Making Memories Of Us
TTITLE6=That Whats Keep Her Getting By
TTITLE7=When You Go
TTITLE8=Baby Put Your Clothes On
TTITLE9=Somewhere I Wanna Go
TTITLE10=Ten Rounds With Jose Curevo
TTITLE11=Getting Me Over Mountains
TTITLE12=I Wanna Feel That Way Again
TTITLE13=I Still Love The Night Life
TTITLE14=For Me Its You
TTITLE15=Ive Got What It Takes
TTITLE16=On Again, Off Again
TTITLE17=Walkin The Line
TTITLE18=Back To Texas
TTITLE19=Old One Better
TTITLE20=I'm From The Country
EXTD=
EXTT0=
EXTT1=
EXTT2=
EXTT3=
EXTT4=
EXTT5=
EXTT6=
EXTT7=
EXTT8=
EXTT9=
EXTT10=
EXTT11=
EXTT12=
EXTT13=
EXTT14=
EXTT15=
EXTT16=
EXTT17=
EXTT18=
EXTT19=
EXTT20=
PLAYORDER=
